<svg xmlns="http://www.w3.org/2000/svg" xmlns:xlink="http://www.w3.org/1999/xlink" width="48" zoomAndPan="magnify" viewBox="0 0 36 36.000001" height="48" preserveAspectRatio="xMidYMid meet" version="1.0"><defs><clipPath id="4f6f18ceb4"><path d="M 0.488281 0 L 35.511719 0 L 35.511719 35.027344 L 0.488281 35.027344 Z M 0.488281 0 " clip-rule="nonzero"/></clipPath></defs><g clip-path="url(#4f6f18ceb4)"><path fill="#000000" d="M 18 35.027344 C 27.671875 35.027344 35.511719 27.1875 35.511719 17.511719 C 35.511719 7.839844 27.671875 0 18 0 C 8.328125 0 0.488281 7.839844 0.488281 17.511719 C 0.488281 27.1875 8.328125 35.027344 18 35.027344 Z M 10.046875 10.0625 L 18 16.425781 L 25.953125 10.0625 L 26.183594 9.871094 L 9.816406 9.871094 Z M 27.035156 11.371094 L 27.339844 11.117188 L 27.339844 24.308594 C 27.339844 24.777344 26.960938 25.15625 26.492188 25.15625 L 9.507812 25.15625 C 9.039062 25.15625 8.660156 24.777344 8.660156 24.308594 L 8.660156 11.117188 L 8.964844 11.371094 L 8.976562 11.382812 L 17.46875 18.175781 C 17.78125 18.425781 18.21875 18.425781 18.53125 18.175781 L 27.023438 11.382812 Z M 27.035156 11.371094 " fill-opacity="1" fill-rule="evenodd"/></g></svg>