<svg xmlns="http://www.w3.org/2000/svg" xmlns:xlink="http://www.w3.org/1999/xlink" width="500" zoomAndPan="magnify" viewBox="0 0 375 374.999991" height="500" preserveAspectRatio="xMidYMid meet" version="1.0"><defs><g/><clipPath id="87a1b00fa3"><path d="M 56 11 L 280 11 L 280 104 L 56 104 Z M 56 11 " clip-rule="nonzero"/></clipPath><clipPath id="24cdba7c9b"><path d="M 36.179688 29.414062 L 286.257812 -7.246094 L 322.914062 242.832031 L 72.839844 279.492188 Z M 36.179688 29.414062 " clip-rule="nonzero"/></clipPath><clipPath id="0b21a8dfbc"><path d="M 36.179688 29.414062 L 286.257812 -7.246094 L 322.914062 242.832031 L 72.839844 279.492188 Z M 36.179688 29.414062 " clip-rule="nonzero"/></clipPath><clipPath id="b663fb1947"><path d="M 45 92 L 188 92 L 188 263 L 45 263 Z M 45 92 " clip-rule="nonzero"/></clipPath><clipPath id="5763b0314d"><path d="M 36.179688 29.414062 L 286.257812 -7.246094 L 322.914062 242.832031 L 72.839844 279.492188 Z M 36.179688 29.414062 " clip-rule="nonzero"/></clipPath><clipPath id="c58362d060"><path d="M 36.179688 29.414062 L 286.257812 -7.246094 L 322.914062 242.832031 L 72.839844 279.492188 Z M 36.179688 29.414062 " clip-rule="nonzero"/></clipPath><clipPath id="a3fb4acbcb"><path d="M 187 56 L 316 56 L 316 260 L 187 260 Z M 187 56 " clip-rule="nonzero"/></clipPath><clipPath id="1413e387ca"><path d="M 36.179688 29.414062 L 286.257812 -7.246094 L 322.914062 242.832031 L 72.839844 279.492188 Z M 36.179688 29.414062 " clip-rule="nonzero"/></clipPath><clipPath id="003b637c47"><path d="M 36.179688 29.414062 L 286.257812 -7.246094 L 322.914062 242.832031 L 72.839844 279.492188 Z M 36.179688 29.414062 " clip-rule="nonzero"/></clipPath></defs><rect x="-37.5" width="450" fill="#ffffff" y="-37.499999" height="449.999989" fill-opacity="1"/><rect x="-37.5" width="450" fill="#000000" y="-37.499999" height="449.999989" fill-opacity="1"/><g clip-path="url(#87a1b00fa3)"><g clip-path="url(#24cdba7c9b)"><g clip-path="url(#0b21a8dfbc)"><path fill="#ffffff" d="M 279.433594 41.199219 L 161.171875 11.089844 L 56.527344 73.871094 L 174.785156 103.960938 Z M 279.433594 41.199219 " fill-opacity="1" fill-rule="nonzero"/></g></g></g><g clip-path="url(#b663fb1947)"><g clip-path="url(#5763b0314d)"><g clip-path="url(#c58362d060)"><path fill="#ffffff" d="M 187.402344 262.601562 L 167.046875 123.726562 L 45.46875 92.773438 L 65.828125 231.664062 Z M 187.402344 262.601562 " fill-opacity="1" fill-rule="nonzero"/></g></g></g><g clip-path="url(#a3fb4acbcb)"><g clip-path="url(#1413e387ca)"><g clip-path="url(#003b637c47)"><path fill="#ffffff" d="M 208.230469 259.550781 L 187.875 120.671875 L 295.453125 56.128906 L 315.8125 195.019531 Z M 208.230469 259.550781 " fill-opacity="1" fill-rule="nonzero"/></g></g></g><g fill="#ffffff" fill-opacity="1"><g transform="translate(9.222571, 357.970612)"><g><path d="M 16.359375 -44.15625 L 27.109375 -20.140625 L 37.875 -44.15625 L 55.9375 -44.15625 L 32.265625 0 L 21.953125 0 L -1.71875 -44.15625 Z M 16.359375 -44.15625 "/></g></g></g><g fill="#ffffff" fill-opacity="1"><g transform="translate(61.721711, 357.970612)"><g><path d="M 9.34375 -5.25 C 4.4375 -9.613281 1.984375 -15.207031 1.984375 -22.03125 C 1.984375 -28.851562 4.535156 -34.457031 9.640625 -38.84375 C 14.742188 -43.238281 21.054688 -45.4375 28.578125 -45.4375 C 35.972656 -45.4375 42.207031 -43.226562 47.28125 -38.8125 C 52.363281 -34.394531 54.90625 -28.800781 54.90625 -22.03125 C 54.90625 -15.257812 52.421875 -9.675781 47.453125 -5.28125 C 42.492188 -0.894531 36.203125 1.296875 28.578125 1.296875 C 20.660156 1.296875 14.25 -0.882812 9.34375 -5.25 Z M 21.125 -29.515625 C 19.144531 -27.566406 18.15625 -25.070312 18.15625 -22.03125 C 18.15625 -18.988281 19.101562 -16.503906 21 -14.578125 C 22.894531 -12.660156 25.390625 -11.703125 28.484375 -11.703125 C 31.472656 -11.703125 33.925781 -12.675781 35.84375 -14.625 C 37.769531 -16.582031 38.734375 -19.050781 38.734375 -22.03125 C 38.734375 -25.070312 37.742188 -27.566406 35.765625 -29.515625 C 33.785156 -31.472656 31.359375 -32.453125 28.484375 -32.453125 C 25.554688 -32.453125 23.101562 -31.472656 21.125 -29.515625 Z M 21.125 -29.515625 "/></g></g></g><g fill="#ffffff" fill-opacity="1"><g transform="translate(116.888827, 357.970612)"><g><path d="M 6.625 -68.765625 C 8.40625 -70.546875 10.53125 -71.4375 13 -71.4375 C 15.46875 -71.4375 17.585938 -70.546875 19.359375 -68.765625 C 21.140625 -66.984375 22.03125 -64.859375 22.03125 -62.390625 C 22.03125 -59.921875 21.140625 -57.796875 19.359375 -56.015625 C 17.585938 -54.242188 15.46875 -53.359375 13 -53.359375 C 10.53125 -53.359375 8.40625 -54.242188 6.625 -56.015625 C 4.84375 -57.796875 3.953125 -59.921875 3.953125 -62.390625 C 3.953125 -64.859375 4.84375 -66.984375 6.625 -68.765625 Z M 5.15625 -44.15625 L 5.15625 0 L 20.390625 0 L 20.390625 -44.15625 Z M 5.15625 -44.15625 "/></g></g></g><g fill="#ffffff" fill-opacity="1"><g transform="translate(141.158796, 357.970612)"><g><path d="M 8.171875 -5.453125 C 4.046875 -9.960938 1.984375 -15.488281 1.984375 -22.03125 C 1.984375 -28.570312 4.046875 -34.109375 8.171875 -38.640625 C 12.304688 -43.171875 17.554688 -45.4375 23.921875 -45.4375 C 29.773438 -45.4375 34.597656 -43.601562 38.390625 -39.9375 L 38.390625 -74.015625 L 53.609375 -74.015625 L 53.609375 0 L 38.5625 0 L 38.5625 -4.984375 L 38.390625 -4.984375 C 34.597656 -0.796875 29.773438 1.296875 23.921875 1.296875 C 17.554688 1.296875 12.304688 -0.953125 8.171875 -5.453125 Z M 21.125 -29.515625 C 19.144531 -27.566406 18.15625 -25.070312 18.15625 -22.03125 C 18.15625 -18.988281 19.101562 -16.503906 21 -14.578125 C 22.894531 -12.660156 25.390625 -11.703125 28.484375 -11.703125 C 31.472656 -11.703125 33.925781 -12.675781 35.84375 -14.625 C 37.769531 -16.582031 38.734375 -19.050781 38.734375 -22.03125 C 38.734375 -25.070312 37.742188 -27.566406 35.765625 -29.515625 C 33.785156 -31.472656 31.359375 -32.453125 28.484375 -32.453125 C 25.554688 -32.453125 23.101562 -31.472656 21.125 -29.515625 Z M 21.125 -29.515625 "/></g></g></g><g fill="#ffffff" fill-opacity="1"><g transform="translate(198.219349, 357.970612)"><g><path d="M 50.59375 -38.640625 C 54.726562 -34.109375 56.796875 -28.570312 56.796875 -22.03125 C 56.796875 -15.488281 54.726562 -9.960938 50.59375 -5.453125 C 46.46875 -0.953125 41.222656 1.296875 34.859375 1.296875 C 29.003906 1.296875 24.179688 -0.796875 20.390625 -4.984375 L 20.21875 -4.984375 L 20.21875 0 L 5.15625 0 L 5.15625 -74.015625 L 20.390625 -74.015625 L 20.390625 -39.9375 C 24.179688 -43.601562 29.003906 -45.4375 34.859375 -45.4375 C 41.222656 -45.4375 46.46875 -43.171875 50.59375 -38.640625 Z M 37.78125 -14.578125 C 39.675781 -16.503906 40.625 -18.988281 40.625 -22.03125 C 40.625 -25.070312 39.632812 -27.566406 37.65625 -29.515625 C 35.675781 -31.472656 33.222656 -32.453125 30.296875 -32.453125 C 27.421875 -32.453125 24.992188 -31.472656 23.015625 -29.515625 C 21.035156 -27.566406 20.046875 -25.070312 20.046875 -22.03125 C 20.046875 -19.050781 21.003906 -16.582031 22.921875 -14.625 C 24.847656 -12.675781 27.304688 -11.703125 30.296875 -11.703125 C 33.390625 -11.703125 35.882812 -12.660156 37.78125 -14.578125 Z M 37.78125 -14.578125 "/></g></g></g><g fill="#ffffff" fill-opacity="1"><g transform="translate(255.279902, 357.970612)"><g><path d="M 9.34375 -5.25 C 4.4375 -9.613281 1.984375 -15.207031 1.984375 -22.03125 C 1.984375 -28.851562 4.535156 -34.457031 9.640625 -38.84375 C 14.742188 -43.238281 21.054688 -45.4375 28.578125 -45.4375 C 35.972656 -45.4375 42.207031 -43.226562 47.28125 -38.8125 C 52.363281 -34.394531 54.90625 -28.800781 54.90625 -22.03125 C 54.90625 -15.257812 52.421875 -9.675781 47.453125 -5.28125 C 42.492188 -0.894531 36.203125 1.296875 28.578125 1.296875 C 20.660156 1.296875 14.25 -0.882812 9.34375 -5.25 Z M 21.125 -29.515625 C 19.144531 -27.566406 18.15625 -25.070312 18.15625 -22.03125 C 18.15625 -18.988281 19.101562 -16.503906 21 -14.578125 C 22.894531 -12.660156 25.390625 -11.703125 28.484375 -11.703125 C 31.472656 -11.703125 33.925781 -12.675781 35.84375 -14.625 C 37.769531 -16.582031 38.734375 -19.050781 38.734375 -22.03125 C 38.734375 -25.070312 37.742188 -27.566406 35.765625 -29.515625 C 33.785156 -31.472656 31.359375 -32.453125 28.484375 -32.453125 C 25.554688 -32.453125 23.101562 -31.472656 21.125 -29.515625 Z M 21.125 -29.515625 "/></g></g></g><g fill="#ffffff" fill-opacity="1"><g transform="translate(310.447018, 357.970612)"><g><path d="M 56.28125 0 L 37.875 0 L 28.140625 -12.484375 L 18.421875 0 L 0 0 L 18.84375 -23.0625 L 2.671875 -44.15625 L 20.484375 -44.15625 L 28.140625 -33.90625 L 35.796875 -44.15625 L 53.609375 -44.15625 L 37.4375 -23.0625 Z M 56.28125 0 "/></g></g></g></svg>