<?xml version="1.0" encoding="UTF-8"?>
<svg width="24" height="24" viewBox="0 0 24 24" fill="none" xmlns="http://www.w3.org/2000/svg">
    <path d="M12 2C10.5 4 8.5 5.5 6 6.5C3.5 7.5 2 10 2 13C2 17.4183 6.58172 21 11 21C15.4183 21 20 17.4183 20 13C20 10 18.5 7.5 16 6.5C13.5 5.5 11.5 4 10 2" stroke="currentColor" stroke-width="2" stroke-linecap="round" stroke-linejoin="round"/>
    <path d="M12 2C13.5 4 15.5 5.5 18 6.5C20.5 7.5 22 10 22 13C22 17.4183 17.4183 21 13 21" stroke="currentColor" stroke-width="2" stroke-linecap="round" stroke-linejoin="round"/>
</svg>
