<svg xmlns="http://www.w3.org/2000/svg" xmlns:xlink="http://www.w3.org/1999/xlink" width="48" zoomAndPan="magnify" viewBox="0 0 36 36.000001" height="48" preserveAspectRatio="xMidYMid meet" version="1.0"><defs><clipPath id="2222b25a82"><path d="M 0.488281 0 L 35.511719 0 L 35.511719 35.027344 L 0.488281 35.027344 Z M 0.488281 0 " clip-rule="nonzero"/></clipPath></defs><g clip-path="url(#2222b25a82)"><path fill="#000000" d="M 18 0 C 8.324219 0 0.488281 7.839844 0.488281 17.511719 C 0.488281 27.1875 8.324219 35.027344 18 35.027344 C 27.675781 35.027344 35.511719 27.1875 35.511719 17.511719 C 35.5 7.839844 27.660156 0 18 0 Z M 27.429688 10.75 L 24.019531 26.746094 C 23.851562 27.550781 22.914062 27.898438 22.261719 27.414062 L 14.164062 21.378906 L 23.109375 13.296875 C 23.109375 13.296875 23.714844 12.796875 23.550781 12.644531 C 23.367188 12.464844 22.699219 12.859375 22.367188 13.085938 C 22.019531 13.34375 11.402344 20.046875 11.402344 20.046875 L 6.019531 18.378906 C 5.414062 18.195312 5.414062 17.363281 6.292969 16.996094 L 26.066406 9.386719 C 26.929688 8.960938 27.613281 9.933594 27.429688 10.75 Z M 27.429688 10.75 " fill-opacity="1" fill-rule="nonzero"/></g></svg>