<svg xmlns="http://www.w3.org/2000/svg" xmlns:xlink="http://www.w3.org/1999/xlink" width="48" zoomAndPan="magnify" viewBox="0 0 36 36.000001" height="48" preserveAspectRatio="xMidYMid meet" version="1.0"><defs><clipPath id="0c4e55c131"><path d="M 0.488281 0 L 35.511719 0 L 35.511719 35.027344 L 0.488281 35.027344 Z M 0.488281 0 " clip-rule="nonzero"/></clipPath></defs><g clip-path="url(#0c4e55c131)"><path fill="#e21e2c" d="M 35.511719 17.511719 C 35.511719 27.1875 27.671875 35.027344 18 35.027344 C 8.328125 35.027344 0.488281 27.1875 0.488281 17.511719 C 0.488281 7.839844 8.328125 0 18 0 C 27.671875 0 35.511719 7.839844 35.511719 17.511719 " fill-opacity="1" fill-rule="nonzero"/></g><path fill="#ffffff" d="M 26.375 11.988281 L 23.523438 9.140625 L 18 14.664062 L 12.476562 9.140625 L 9.625 11.988281 L 15.148438 17.511719 L 9.625 23.039062 L 12.476562 25.886719 L 18 20.363281 L 23.523438 25.886719 L 26.375 23.039062 L 20.851562 17.511719 L 26.375 11.988281 " fill-opacity="1" fill-rule="nonzero"/></svg>