<svg xmlns="http://www.w3.org/2000/svg" xmlns:xlink="http://www.w3.org/1999/xlink" width="48" zoomAndPan="magnify" viewBox="0 0 36 36.000001" height="48" preserveAspectRatio="xMidYMid meet" version="1.0"><defs><clipPath id="65f9aa4017"><path d="M 0.488281 0 L 35.511719 0 L 35.511719 35.027344 L 0.488281 35.027344 Z M 0.488281 0 " clip-rule="nonzero"/></clipPath></defs><g clip-path="url(#65f9aa4017)"><path fill="#000000" d="M 18 0 C 27.671875 0 35.511719 7.839844 35.511719 17.511719 C 35.511719 27.1875 27.671875 35.027344 18 35.027344 C 8.328125 35.027344 0.488281 27.1875 0.488281 17.511719 C 0.488281 7.839844 8.328125 0 18 0 Z M 18 13.472656 C 15.773438 13.472656 13.957031 15.285156 13.957031 17.515625 C 13.957031 19.742188 15.773438 21.554688 18 21.554688 C 20.230469 21.554688 22.042969 19.742188 22.042969 17.515625 C 22.042969 15.285156 20.230469 13.472656 18 13.472656 Z M 18 23.265625 C 21.171875 23.265625 23.753906 20.683594 23.753906 17.515625 C 23.753906 14.34375 21.171875 11.761719 18 11.761719 C 14.828125 11.761719 12.25 14.34375 12.25 17.515625 C 12.25 20.683594 14.828125 23.265625 18 23.265625 Z M 6.300781 16.554688 C 5.9375 17.171875 5.9375 17.855469 6.300781 18.472656 C 8.980469 23.03125 13.355469 25.75 18 25.75 C 22.644531 25.75 27.019531 23.03125 29.699219 18.472656 C 30.0625 17.855469 30.0625 17.171875 29.699219 16.554688 C 27.019531 11.996094 22.644531 9.277344 18 9.277344 C 13.355469 9.277344 8.980469 11.996094 6.300781 16.554688 Z M 6.300781 16.554688 " fill-opacity="1" fill-rule="evenodd"/></g></svg>